<svg xmlns="http://www.w3.org/2000/svg" width="134" height="35" viewBox="0 0 134 35">
    <g fill="none" fill-rule="evenodd">
        <path fill="#2C3279" d="M48.833 15.934c0-8.768-10.906-15.916-24.36-15.916C11.02.018.114 7.166.114 15.934l-.002.932C.112 26.167 9.644 33.7 24.47 33.7c14.918 0 24.363-7.532 24.363-16.834v-.933z"/>
        <path fill="#FFE600" d="M24.478 30.893c-12.936 0-23.422-6.7-23.422-14.967S11.542.958 24.478.958 47.9 7.659 47.9 15.926c0 8.266-10.486 14.967-23.422 14.967z"/>
        <path fill="#FFF" d="M16.7 11.204c-.012.023-.245.265-.094.459.37.471 1.512.742 2.666.483.688-.154 1.568-.854 2.422-1.53.925-.734 1.842-1.47 2.765-1.762.977-.31 1.603-.177 2.016-.052.454.135.987.433 1.838 1.07 1.603 1.205 8.047 6.823 9.16 7.794.897-.404 4.883-2.118 10.299-3.31-.47-2.884-2.227-5.523-4.89-7.684-3.713 1.558-8.25 2.37-12.687.206-.022-.01-2.424-1.144-4.792-1.088-3.52.08-5.045 1.603-6.659 3.214l-2.043 2.2z"/>
        <path fill="#FFF" d="M37.212 18.278c-.076-.067-7.577-6.624-9.277-7.9-.984-.737-1.53-.925-2.105-.998-.3-.039-.712.016-1 .096-.792.214-1.825.905-2.743 1.632-.95.756-1.846 1.468-2.677 1.654-1.063.237-2.36-.043-2.952-.443-.24-.16-.408-.347-.49-.536-.218-.507.185-.912.251-.98l2.07-2.236c.24-.24.484-.48.731-.716-.668.086-1.285.257-1.886.424-.75.21-1.472.411-2.201.41-.305 0-1.938-.267-2.248-.35-1.873-.513-3.517-1.012-5.973-2.157-2.944 2.189-4.912 4.925-5.48 7.939.423.111 1.104.314 1.39.377 6.66 1.48 8.735 3.003 9.11 3.322.408-.453.996-.74 1.652-.74.737.001 1.4.37 1.805.943a2.518 2.518 0 011.587-.558c.31 0 .63.057.953.167.751.257 1.14.757 1.34 1.21a2.22 2.22 0 01.927-.197c.359 0 .732.082 1.107.244 1.229.526 1.42 1.731 1.308 2.64a2.641 2.641 0 012.905 2.624c0 .45-.116.873-.316 1.245.396.222 1.406.725 2.293.613.708-.089.977-.331 1.073-.467.066-.094.136-.203.071-.281l-1.879-2.085s-.31-.293-.207-.405c.106-.116.297.05.432.163.957.798 2.124 2.002 2.124 2.002.02.012.097.165.53.243.37.066 1.029.027 1.484-.347.115-.094.23-.212.326-.333-.007.006-.013.014-.02.017.48-.615-.054-1.236-.054-1.236l-2.194-2.461s-.313-.29-.207-.406c.096-.101.298.051.435.165.695.58 1.676 1.565 2.617 2.485.183.134 1.01.645 2.105-.073.664-.436.798-.97.779-1.374-.047-.534-.463-.914-.463-.914l-2.998-3.01s-.316-.27-.204-.406c.091-.115.297.05.431.163.956.798 3.54 3.165 3.54 3.165.037.025.93.66 2.033-.041.394-.252.647-.632.668-1.073.038-.766-.503-1.22-.503-1.22"/>
        <path fill="#FFF" d="M22.676 22.093c-.465-.006-.973.27-1.04.23-.036-.024.03-.21.072-.318.045-.107.657-1.946-.835-2.585-1.141-.49-1.839.061-2.08.31-.062.065-.09.06-.097-.023-.023-.331-.172-1.228-1.157-1.528-1.408-.43-2.313.551-2.543.906a1.628 1.628 0 00-1.612-1.425 1.635 1.635 0 00-1.637 1.632 1.634 1.634 0 002.765 1.177c.01.008.013.024.008.055-.068.404-.195 1.87 1.343 2.468.617.24 1.142.062 1.577-.243.129-.092.15-.053.132.069-.056.377.014 1.185 1.149 1.645.862.35 1.373-.009 1.707-.318.146-.132.186-.11.194.094a2.049 2.049 0 002.051 1.96 2.053 2.053 0 002.058-2.05 2.062 2.062 0 00-2.055-2.056"/>
        <path fill="#2C3279" d="M22.676 26.053a1.894 1.894 0 01-1.905-1.819c-.003-.087-.012-.32-.208-.32-.08 0-.151.05-.232.122-.226.21-.515.423-.936.423a1.64 1.64 0 01-.617-.134c-1.087-.44-1.102-1.186-1.058-1.486.012-.08.016-.163-.04-.228l-.066-.06h-.068c-.055 0-.112.023-.19.077-.313.22-.615.328-.922.328-.169 0-.342-.034-.515-.1-1.432-.557-1.32-1.907-1.249-2.313.01-.082-.01-.147-.063-.189l-.1-.083-.095.09c-.28.269-.644.416-1.028.416a1.488 1.488 0 01-1.487-1.485 1.484 1.484 0 012.955-.188l.052.399.219-.338c.025-.04.625-.947 1.73-.946.21 0 .427.034.645.102.88.268 1.03 1.066 1.053 1.398.016.193.153.203.18.203.077 0 .132-.048.172-.09a1.5 1.5 0 011.095-.461c.259 0 .535.062.82.184 1.399.6.764 2.376.756 2.395-.12.294-.125.424-.012.5l.055.025h.041c.064 0 .142-.027.271-.07.191-.067.478-.165.747-.165 1.054.011 1.911.868 1.91 1.908a1.911 1.911 0 01-1.91 1.905m14.826-8.56c-2.31-2.015-7.651-6.653-9.098-7.737-.826-.621-1.39-.949-1.885-1.096a3.118 3.118 0 00-.926-.144c-.367 0-.763.066-1.175.197-.935.296-1.866 1.035-2.767 1.75l-.047.037c-.839.666-1.706 1.356-2.362 1.502a3.993 3.993 0 01-.875.097c-.735 0-1.395-.212-1.643-.527-.04-.053-.014-.137.081-.259l.013-.016L18.85 9.11c1.592-1.59 3.096-3.092 6.558-3.172.057-.002.116-.003.173-.003 2.154.002 4.309.965 4.55 1.077 2.02.985 4.106 1.485 6.202 1.486 2.186.001 4.44-.539 6.81-1.63-.265-.222-.54-.438-.824-.65-2.082.901-4.066 1.357-5.98 1.356-1.954-.002-3.908-.47-5.804-1.395-.1-.047-2.479-1.168-4.953-1.169l-.196.002c-2.908.068-4.545 1.1-5.647 2.004-1.071.026-1.995.284-2.818.513-.734.204-1.367.38-1.985.38-.255 0-.713-.023-.754-.025-.711-.021-4.292-.898-7.14-1.976-.291.206-.57.418-.843.635 2.975 1.218 6.596 2.16 7.74 2.234.317.021.656.057.995.058.756 0 1.51-.212 2.24-.416.432-.121.908-.252 1.409-.349l-.401.398-2.066 2.232c-.162.164-.515.602-.282 1.14.092.218.28.426.543.603.492.33 1.373.554 2.192.555.31 0 .604-.03.875-.091.865-.194 1.773-.917 2.736-1.681.766-.608 1.855-1.38 2.69-1.608.232-.063.518-.103.748-.103.069.001.134.003.194.012.551.07 1.084.257 2.035.97 1.695 1.272 9.198 7.828 9.271 7.893.005.004.484.416.45 1.101-.017.382-.23.722-.599.957-.32.203-.65.307-.985.307a1.62 1.62 0 01-.869-.252c-.027-.022-2.598-2.377-3.543-3.168-.151-.124-.298-.237-.446-.237a.244.244 0 00-.196.093c-.15.183.018.437.214.604l3.003 3.014c.004.004.374.35.415.813.023.5-.216.918-.713 1.243-.354.233-.713.351-1.065.351-.46 0-.784-.21-.856-.259l-.43-.424c-.788-.774-1.6-1.574-2.196-2.07-.145-.12-.3-.231-.447-.231a.255.255 0 00-.19.08c-.067.075-.114.21.054.435.07.093.152.169.152.169l2.191 2.458c.019.022.452.537.05 1.05l-.078.097a2.355 2.355 0 01-.203.197c-.374.306-.874.339-1.071.339-.106 0-.208-.01-.296-.026-.217-.038-.362-.098-.432-.181l-.026-.028c-.12-.124-1.225-1.25-2.139-2.012-.12-.1-.27-.228-.426-.228a.26.26 0 00-.198.089c-.18.197.09.493.206.602l1.87 2.058a.436.436 0 01-.072.126c-.067.093-.294.319-.971.404-.082.01-.166.015-.248.015-.7 0-1.445-.34-1.83-.543a2.77 2.77 0 00.266-1.183 2.79 2.79 0 00-2.887-2.785c.05-.701-.049-2.03-1.414-2.615a2.939 2.939 0 00-1.166-.256c-.298 0-.584.051-.854.154a2.346 2.346 0 00-1.365-1.157 3.062 3.062 0 00-1-.176c-.569 0-1.092.167-1.558.498a2.362 2.362 0 00-1.834-.884 2.37 2.37 0 00-1.665.688c-.582-.444-2.89-1.909-9.065-3.31-.3-.067-.986-.264-1.406-.386-.07.334-.124.671-.158 1.012 0 0 1.139.272 1.363.323 6.309 1.4 8.394 2.855 8.746 3.13a2.366 2.366 0 002.615 3.23c.196.959.824 1.685 1.784 2.058.28.108.564.163.842.163.18 0 .361-.022.538-.067.177.45.576 1.01 1.467 1.371.313.126.625.191.929.191.248 0 .49-.043.722-.128a2.784 2.784 0 004.574.882c.45.25 1.4.702 2.36.704.124 0 .24-.01.357-.023.954-.12 1.398-.493 1.602-.782.036-.05.07-.105.097-.16.225.064.473.117.756.118.521 0 1.02-.178 1.526-.545.496-.358.849-.87.9-1.308a.26.26 0 00.002-.018c.168.034.34.052.51.052.537 0 1.064-.167 1.568-.497.972-.636 1.14-1.467 1.124-2.012.17.036.344.054.517.054.503 0 .997-.151 1.468-.451.603-.385.965-.974 1.02-1.659a2.238 2.238 0 00-.324-1.34c1.629-.7 5.35-2.057 9.733-3.043a9.903 9.903 0 00-.136-1.009c-5.303 1.176-9.26 2.886-10.251 3.327"/>
        <g fill="#2C3279">
            <path d="M73.337 11.317c-.427.566-1.037.849-1.834.849-.797 0-1.41-.283-1.84-.849-.43-.565-.645-1.37-.645-2.413 0-1.041.214-1.844.645-2.406.43-.563 1.043-.844 1.84-.844.797 0 1.407.281 1.834.844.426.562.64 1.365.64 2.406 0 1.043-.214 1.848-.64 2.413m2.179-6.313c-.88-1.1-2.214-1.65-4.005-1.65-1.79 0-3.124.55-4.003 1.65-.88 1.1-1.32 2.4-1.32 3.9 0 1.527.44 2.832 1.32 3.918.879 1.083 2.214 1.626 4.003 1.626 1.791 0 3.126-.543 4.005-1.626.88-1.086 1.319-2.39 1.319-3.918 0-1.5-.439-2.8-1.32-3.9M51.66 10.032c-.018.913-.28 1.542-.783 1.887a2.856 2.856 0 01-1.65.518c-.377 0-.696-.105-.96-.312-.262-.207-.392-.545-.392-1.01 0-.524.214-.91.644-1.16.256-.146.673-.271 1.257-.371l.623-.116a4.58 4.58 0 00.732-.189 2.75 2.75 0 00.529-.262v1.015zm1.385-5.948c-.891-.452-1.912-.68-3.06-.68-1.766 0-3.012.46-3.737 1.38-.456.588-.712 1.338-.772 2.25h2.638c.065-.402.194-.721.389-.957.272-.32.734-.479 1.388-.479.584 0 1.026.08 1.328.245.3.162.452.458.452.885 0 .352-.195.61-.59.776-.218.096-.582.176-1.092.24l-.935.114c-1.062.134-1.868.358-2.414.672-1 .575-1.498 1.502-1.498 2.786 0 .989.309 1.754.93 2.294.62.539 1.408.765 2.359.81 5.965.265 5.897-3.14 5.952-3.848v-3.92c0-1.257-.447-2.114-1.338-2.568zM39.445 5.74c.682 0 1.182.21 1.506.63.222.312.36.663.414 1.051h2.942c-.161-1.482-.68-2.518-1.557-3.104-.88-.584-2.007-.878-3.384-.878-1.621 0-2.894.497-3.813 1.49-.921.993-1.382 2.382-1.382 4.167 0 1.581.416 2.87 1.25 3.863.834.992 2.135 1.489 3.902 1.489 1.77 0 3.106-.595 4.005-1.786.565-.737.882-1.52.948-2.349h-2.932c-.06.547-.23.994-.515 1.337-.282.343-.76.516-1.434.516-.95 0-1.595-.433-1.94-1.3-.187-.462-.282-1.074-.282-1.837 0-.8.095-1.44.283-1.924.357-.91 1.02-1.365 1.989-1.365M33.382 3.439c-6.043 0-5.686 5.345-5.686 5.345v5.43h2.743V9.12c0-.834.106-1.452.315-1.854.376-.712 1.11-1.07 2.208-1.07a8.116 8.116 0 01.785.05V3.459c-.122-.008-.201-.011-.235-.015a1.443 1.443 0 00-.13-.005M19.621 6.276c.387-.396.928-.594 1.627-.594.643 0 1.181.186 1.616.56.433.374.676.923.725 1.644h-4.692c.097-.677.34-1.213.724-1.61zm3.687 5.1a1.987 1.987 0 01-.375.415c-.388.319-.914.415-1.533.415-.587 0-1.045-.088-1.46-.35-.685-.42-1.07-1.13-1.11-2.174h7.588c.01-.899-.019-1.587-.092-2.066-.126-.815-.403-1.533-.829-2.151a4.253 4.253 0 00-1.8-1.54c-.727-.324-1.543-.487-2.449-.487-1.528 0-2.769.48-3.726 1.442-.956.964-1.437 2.344-1.437 4.147 0 1.925.53 3.313 1.591 4.167 1.06.853 2.284 1.28 3.67 1.28 1.679 0 2.986-.505 3.919-1.518.504-.533.819-1.06.952-1.58h-2.909zM14.984 14.212H12.48v-6.3c0-.576-.19-1.945-1.843-1.945-1.101 0-1.898.793-1.898 1.944v6.301H6.23v-6.3c0-.576-.171-1.945-1.822-1.945-1.121 0-1.9.793-1.9 1.944v6.301H0v-6.24c0-2.602 1.728-4.57 4.407-4.57 1.33 0 2.41.558 3.114 1.452a3.993 3.993 0 013.114-1.452c2.735 0 4.348 1.888 4.348 4.57v6.24zM62.083 11.34c-.4.573-.989.86-1.758.86-.773 0-1.347-.29-1.725-.865-.38-.577-.568-1.416-.568-2.377 0-.891.185-1.637.558-2.239.372-.6.956-.903 1.753-.903.523 0 .981.166 1.377.497.643.548.965 1.53.965 2.802 0 .91-.2 1.652-.602 2.225zM65.373.148S62.61-.147 62.61 2.07l-.002 2.935a3.3 3.3 0 00-1.194-1.15c-.49-.277-1.05-.416-1.683-.416-1.37 0-2.462.51-3.282 1.527-.82 1.02-1.227 2.488-1.227 4.263 0 1.54.415 2.804 1.247 3.787.831.982 2.462 1.413 3.91 1.413 5.05 0 4.991-4.325 4.991-4.325l.002-9.956z" transform="translate(56.322 .789)"/>
            <g>
                <path d="M30.287 6.179c.383-.392.92-.59 1.611-.59.637 0 1.171.186 1.601.557.431.37.67.914.72 1.63h-4.652c.099-.672.339-1.204.72-1.597zm3.654 5.056a1.994 1.994 0 01-.372.41c-.386.316-.927.433-1.54.433-.58 0-1.035-.087-1.446-.347-.68-.417-1.04-1.141-1.08-2.177h7.52c.01-.89-.018-1.572-.09-2.046-.127-.808-.4-1.52-.822-2.133-.47-.695-1.067-1.204-1.785-1.526-.72-.322-1.53-.482-2.428-.482-1.515 0-2.744.476-3.693 1.429-.948.955-1.423 2.323-1.423 4.11 0 1.908.525 3.284 1.577 4.13 1.05.847 2.264 1.27 3.637 1.27 1.664 0 2.959-.502 3.883-1.506.5-.527.812-1.05.945-1.565H33.94zM16.227 11.212c-.38.575-.954.863-1.725.863-.772 0-1.36-.285-1.76-.859-.4-.572-.602-1.313-.602-2.225 0-1.272.322-2.182.965-2.73a2.09 2.09 0 011.376-.496c.798 0 1.383.3 1.754.903.374.6.56 1.347.56 2.237 0 .962-.19 1.73-.568 2.307m-1.133-7.823c-.63 0-1.192.137-1.682.414-.492.277-.89.66-1.195 1.15V.027S9.455-.248 9.455 1.994V9.98s-.057 4.327 4.992 4.327c1.448 0 3.079-.432 3.91-1.414.831-.984 1.247-2.245 1.247-3.786 0-1.775-.41-3.172-1.229-4.19-.817-1.02-1.911-1.527-3.281-1.527M26.258 3.376a2.105 2.105 0 00-.129-.004c-6.045 0-5.687 5.344-5.687 5.344v5.345h2.743V9.052c0-.834.105-1.452.317-1.853.374-.712 1.11-1.07 2.207-1.07.084 0 .19.004.324.011.135.006.288.018.46.037V3.391c-.122-.008-.2-.011-.235-.015M0 1.985v12.057h2.574V.019S0-.084 0 1.985" transform="translate(56.322 .789) translate(0 16.07)"/>
                <path d="M7.432 0L4.676 0 4.676 2.725 7.432 2.725z" transform="translate(56.322 .789) translate(0 16.07) matrix(1 0 0 -1 0 2.725)"/>
                <path d="M4.677 3.656L7.437 3.656 7.437 14.061 4.677 14.061z" transform="translate(56.322 .789) translate(0 16.07) matrix(1 0 0 -1 0 17.717)"/>
            </g>
        </g>
    </g>
</svg>
